<svg width="28" height="24" viewBox="0 0 28 24" fill="none" xmlns="http://www.w3.org/2000/svg">
<path fill-rule="evenodd" clip-rule="evenodd" d="M2.33329 13.6666H22.1083L16.0533 20.9333C15.4633 21.6399 15.56 22.6916 16.2666 23.2799C16.975 23.8699 18.025 23.7733 18.615 23.0666L26.9483 13.0666C27.0133 12.9883 27.045 12.8966 27.0933 12.8099C27.1333 12.7399 27.1816 12.6799 27.2116 12.6033C27.2866 12.4116 27.3316 12.2099 27.3316 12.0066C27.3316 12.0049 27.3333 12.0016 27.3333 11.9999C27.3333 11.9983 27.3316 11.9949 27.3316 11.9933C27.3316 11.7899 27.2866 11.5883 27.2116 11.3966C27.1816 11.3199 27.1333 11.2599 27.0933 11.1899C27.045 11.1033 27.0133 11.0116 26.9483 10.9333L18.615 0.933252C18.2833 0.538252 17.81 0.333252 17.3333 0.333252C16.9566 0.333252 16.5783 0.459919 16.2666 0.719919C15.56 1.30825 15.4633 2.35992 16.0533 3.06659L22.1083 10.3333H2.33329C1.41329 10.3333 0.666626 11.0799 0.666626 11.9999C0.666626 12.9199 1.41329 13.6666 2.33329 13.6666Z" fill="white"/>
</svg>
