<svg width="14" height="18" viewBox="0 0 14 18" fill="none" xmlns="http://www.w3.org/2000/svg">
<path fill-rule="evenodd" clip-rule="evenodd" d="M8.99993 4C8.99993 2.897 8.10293 2 6.99994 2C5.89694 2 4.99994 2.897 4.99994 4C4.99994 5.103 5.89694 6 6.99994 6C8.10293 6 8.99993 5.103 8.99993 4ZM11 4C11 6.206 9.20597 8 6.99997 8C4.79397 8 2.99997 6.206 2.99997 4C2.99997 1.794 4.79397 0 6.99997 0C9.20597 0 11 1.794 11 4ZM-3.05176e-05 17C-3.05176e-05 13.14 3.14097 10 6.99997 10C10.859 10 14 13.14 14 17C14 17.552 13.553 18 13 18C12.447 18 12 17.552 12 17C12 14.243 9.75697 12 6.99997 12C4.24297 12 1.99997 14.243 1.99997 17C1.99997 17.552 1.55297 18 0.99997 18C0.44697 18 -3.05176e-05 17.552 -3.05176e-05 17Z" fill="white"/>
</svg>
