<svg width="24" height="24" viewBox="0 0 24 24" fill="none" xmlns="http://www.w3.org/2000/svg">
<path fill-rule="evenodd" clip-rule="evenodd" d="M4.9144 12.5775L6.39617 12.0947C6.87057 11.9405 7.25616 11.6113 7.48237 11.1673L9.46364 7.27884C10.0385 6.15062 11.0785 5.32223 12.3169 5.00864C13.5654 4.69178 14.834 4.91925 15.9021 5.65305C17.7059 6.89572 18.2737 9.38844 17.2223 11.452L15.33 15.1659C15.1038 15.6098 15.064 16.1153 15.2178 16.5884L15.6985 18.0723L4.9144 12.5775ZM10.9772 18.1182C10.5964 18.8657 9.51288 19.1095 8.61164 18.6503C7.7104 18.1911 7.27079 17.1712 7.65163 16.4238L7.79608 16.1402L11.1217 17.8347L10.9772 18.1182ZM17.7258 18.2759L16.9927 16.0131L18.885 12.2992C20.3596 9.40512 19.5321 5.88676 16.9595 4.11621C15.47 3.08917 13.6084 2.75538 11.8582 3.19988C10.0979 3.64556 8.62003 4.82367 7.80075 6.4316L5.81864 10.3196L3.55708 11.0565C2.96805 11.2486 2.55638 11.7709 2.50787 12.3881C2.45978 13.0066 2.78504 13.5871 3.33709 13.8684L6.1331 15.293L5.98864 15.5765C5.13378 17.2543 5.93015 19.3786 7.76422 20.3131C9.59829 21.2476 11.785 20.6432 12.6399 18.9655L12.7843 18.682L15.5803 20.1066C16.1324 20.3879 16.7923 20.3094 17.2632 19.9074C17.7353 19.5049 17.9171 18.8645 17.7258 18.2759Z" fill="white"/>
</svg>
