<svg width="16" height="14" viewBox="0 0 16 14" fill="none" xmlns="http://www.w3.org/2000/svg">
<path fill-rule="evenodd" clip-rule="evenodd" d="M15 8H3.135L6.768 12.36C7.122 12.784 7.064 13.415 6.64 13.768C6.215 14.122 5.585 14.064 5.231 13.64L0.231 7.64C0.192 7.593 0.173 7.538 0.144 7.486C0.12 7.444 0.0909996 7.408 0.073 7.362C0.0279999 7.247 0.0010004 7.126 0.0010004 7.004C0.0010004 7.003 0 7.001 0 7C0 6.999 0.0010004 6.997 0.0010004 6.996C0.0010004 6.874 0.0279999 6.753 0.073 6.638C0.0909996 6.592 0.12 6.556 0.144 6.514C0.173 6.462 0.192 6.407 0.231 6.36L5.231 0.36C5.43 0.123 5.714 0 6 0C6.226 0 6.453 0.076 6.64 0.232C7.064 0.585 7.122 1.216 6.768 1.64L3.135 6H15C15.552 6 16 6.448 16 7C16 7.552 15.552 8 15 8Z" fill="#29295F"/>
</svg>
