<svg width="5" height="5" viewBox="0 0 5 5" fill="none" xmlns="http://www.w3.org/2000/svg">
<path fill-rule="evenodd" clip-rule="evenodd" d="M4.75565 0.244355C4.42984 -0.0814515 3.90322 -0.0814515 3.57741 0.244355L2.5 1.32176L1.42259 0.244355C1.09678 -0.0814515 0.570161 -0.0814515 0.244355 0.244355C-0.0814515 0.570161 -0.0814515 1.09678 0.244355 1.42259L1.32176 2.5L0.244355 3.57741C-0.0814515 3.90322 -0.0814515 4.42984 0.244355 4.75564C0.406841 4.91813 0.620157 4.99979 0.833472 4.99979C1.04679 4.99979 1.2601 4.91813 1.42259 4.75564L2.5 3.67823L3.57741 4.75564C3.7399 4.91813 3.95321 4.99979 4.16653 4.99979C4.37984 4.99979 4.59316 4.91813 4.75565 4.75564C5.08145 4.42984 5.08145 3.90322 4.75565 3.57741L3.67824 2.5L4.75565 1.42259C5.08145 1.09678 5.08145 0.570161 4.75565 0.244355Z" fill="#ffffff"/>
</svg>
