<svg width="12" height="12" viewBox="0 0 12 12" fill="none" xmlns="http://www.w3.org/2000/svg">
<path fill-rule="evenodd" clip-rule="evenodd" d="M3.33203 4.66675C3.88403 4.66675 4.33203 4.21875 4.33203 3.66675C4.33203 3.11475 3.88403 2.66675 3.33203 2.66675C2.78003 2.66675 2.33203 3.11475 2.33203 3.66675C2.33203 4.21875 2.78003 4.66675 3.33203 4.66675ZM10.001 10.6668H2.375L7.045 6.7701C7.209 6.63077 7.50633 6.63144 7.667 6.76944L10.6677 9.32944V10.0001C10.6677 10.3681 10.369 10.6668 10.001 10.6668ZM1.9987 1.33325H9.9987C10.3667 1.33325 10.6654 1.63192 10.6654 1.99992V7.57592L8.53003 5.75459C7.87003 5.19325 6.83736 5.19325 6.18336 5.75059L1.33203 9.79859V1.99992C1.33203 1.63192 1.6307 1.33325 1.9987 1.33325ZM10 0H2C0.897333 0 0 0.897333 0 2V10C0 11.1027 0.897333 12 2 12H10C11.1027 12 12 11.1027 12 10V2C12 0.897333 11.1027 0 10 0Z" fill="white"/>
</svg>
