<svg width="16" height="16" viewBox="0 0 16 16" fill="none" xmlns="http://www.w3.org/2000/svg">
<path fill-rule="evenodd" clip-rule="evenodd" d="M11 7.25H8.75V5C8.75 4.58525 8.414 4.25 8 4.25C7.586 4.25 7.25 4.58525 7.25 5V8C7.25 8.41475 7.586 8.75 8 8.75H11C11.4148 8.75 11.75 8.41475 11.75 8C11.75 7.58525 11.4148 7.25 11 7.25ZM8 14C4.69175 14 2 11.3082 2 8C2 4.69175 4.69175 2 8 2C11.3082 2 14 4.69175 14 8C14 11.3082 11.3082 14 8 14ZM8 0.5C3.8645 0.5 0.5 3.8645 0.5 8C0.5 12.1355 3.8645 15.5 8 15.5C12.1355 15.5 15.5 12.1355 15.5 8C15.5 3.8645 12.1355 0.5 8 0.5Z" fill="#29295F"/>
</svg>
