<svg width="16" height="7" viewBox="0 0 16 7" fill="none" xmlns="http://www.w3.org/2000/svg">
<path d="M8 0C7.99988 0 8.00012 0 8 0C5.17949 0 2.52757 1.09844 0.533261 3.09287C-0.177753 3.80377 -0.177753 4.95659 0.533261 5.6676C0.888767 6.02311 1.35473 6.20092 1.82068 6.20092C2.28664 6.20092 2.7526 6.02311 3.10799 5.6676C4.41471 4.36088 6.15207 3.64137 8 3.64137C9.84793 3.64137 11.5853 4.361 12.892 5.6676C13.6029 6.37849 14.7557 6.37849 15.4667 5.6676C16.1778 4.95671 16.1778 3.80389 15.4667 3.09287C13.4723 1.09844 10.8206 0 8 0Z" fill="white"/>
</svg>
