<svg width="14" height="12" viewBox="0 0 14 12" fill="none" xmlns="http://www.w3.org/2000/svg">
<path fill-rule="evenodd" clip-rule="evenodd" d="M6.9987 0C8.71936 0 10.2354 1.10733 10.782 2.69667C12.408 2.91733 13.6654 4.31467 13.6654 6C13.6654 6.814 13.3694 7.59733 12.832 8.206C12.7 8.35467 12.5167 8.43133 12.332 8.43133C12.1754 8.43133 12.018 8.37667 11.8907 8.26467C11.6154 8.02 11.5887 7.59933 11.8327 7.32267C12.1547 6.95867 12.332 6.488 12.332 6C12.332 4.89733 11.4347 4 10.332 4H10.2654C9.94803 4 9.6747 3.776 9.61203 3.46467C9.3627 2.23 8.26403 1.33333 6.9987 1.33333C5.73403 1.33333 4.6347 2.23 4.38603 3.46467C4.32336 3.776 4.04936 4 3.73203 4H3.66536C2.5627 4 1.66536 4.89733 1.66536 6C1.66536 6.488 1.8427 6.95867 2.16536 7.32267C2.4087 7.59933 2.3827 8.02 2.1067 8.26467C1.83003 8.50867 1.40936 8.48133 1.16603 8.206C0.628031 7.59733 0.332031 6.814 0.332031 6C0.332031 4.31467 1.58936 2.91733 3.21536 2.69667C3.7627 1.10733 5.2787 0 6.9987 0ZM7.66568 9.76257L8.53568 8.92257C8.80101 8.66723 9.22301 8.67457 9.47835 8.93923C9.73435 9.20457 9.72701 9.62657 9.46235 9.8819L7.46235 11.8132C7.33235 11.9372 7.16568 11.9999 6.99901 11.9999C6.82835 11.9999 6.65768 11.9352 6.52768 11.8046L4.52768 9.80457C4.26701 9.54457 4.26701 9.12257 4.52768 8.8619C4.78768 8.6019 5.20968 8.6019 5.47035 8.8619L6.33235 9.7239V5.9999C6.33235 5.63123 6.63101 5.33323 6.99901 5.33323C7.36701 5.33323 7.66568 5.63123 7.66568 5.9999V9.76257Z" fill="#29295F"/>
</svg>
