<svg width="20" height="30" viewBox="0 0 20 30" fill="none" xmlns="http://www.w3.org/2000/svg">
<path fill-rule="evenodd" clip-rule="evenodd" d="M7.9999 26.999H10.9999V17.699C10.9999 16.8695 11.6704 16.199 12.4999 16.199H15.8599L16.5274 13.799H12.4999C11.6704 13.799 10.9999 13.1285 10.9999 12.299V8.24902C10.9999 6.67702 12.3454 5.39902 13.9999 5.39902H16.9999V2.99903H13.9999C10.6909 2.99903 7.9999 5.35402 7.9999 8.24902V12.299C7.9999 13.1285 7.3294 13.799 6.4999 13.799H3.4999V16.199H6.4999C7.3294 16.199 7.9999 16.8695 7.9999 17.699V26.999ZM12.4999 29.999H6.49994C5.67044 29.999 4.99994 29.3285 4.99994 28.499V19.199H1.99994C1.17044 19.199 0.499939 18.5285 0.499939 17.699V12.299C0.499939 11.4695 1.17044 10.799 1.99994 10.799H4.99994V8.24903C4.99994 3.70102 9.03644 -0.000976562 13.9999 -0.000976562H18.4999C19.3294 -0.000976562 19.9999 0.669524 19.9999 1.49902V6.89903C19.9999 7.72703 19.3294 8.39903 18.4999 8.39903H13.9999V10.799H18.4999C18.9679 10.799 19.4104 11.0195 19.6939 11.3915C19.9774 11.765 20.0704 12.2495 19.9459 12.701L18.4459 18.0995C18.2659 18.749 17.6734 19.199 16.9999 19.199H13.9999V28.499C13.9999 29.3285 13.3294 29.999 12.4999 29.999Z" fill="#29295F"/>
</svg>
