<svg width="11" height="18" viewBox="0 0 11 18" fill="none" xmlns="http://www.w3.org/2000/svg">
<path fill-rule="evenodd" clip-rule="evenodd" d="M4.33327 15.6667H5.99994V10.5001C5.99994 10.0392 6.37244 9.66675 6.83327 9.66675H8.69994L9.07077 8.33341H6.83327C6.37244 8.33341 5.99994 7.96091 5.99994 7.50008V5.25008C5.99994 4.37675 6.74744 3.66675 7.6666 3.66675H9.33327V2.33342H7.6666C5.82827 2.33342 4.33327 3.64175 4.33327 5.25008V7.50008C4.33327 7.96091 3.96077 8.33341 3.49994 8.33341H1.83327V9.66675H3.49994C3.96077 9.66675 4.33327 10.0392 4.33327 10.5001V15.6667ZM6.83329 17.3334H3.49996C3.03913 17.3334 2.66663 16.9609 2.66663 16.5001V11.3334H0.999959C0.539126 11.3334 0.166626 10.9609 0.166626 10.5001V7.50008C0.166626 7.03925 0.539126 6.66675 0.999959 6.66675H2.66663V5.25008C2.66663 2.72342 4.90913 0.666748 7.66663 0.666748H10.1666C10.6275 0.666748 11 1.03925 11 1.50008V4.50008C11 4.96008 10.6275 5.33342 10.1666 5.33342H7.66663V6.66675H10.1666C10.4266 6.66675 10.6725 6.78925 10.83 6.99592C10.9875 7.20342 11.0391 7.47258 10.97 7.72342L10.1366 10.7226C10.0366 11.0834 9.70746 11.3334 9.33329 11.3334H7.66663V16.5001C7.66663 16.9609 7.29413 17.3334 6.83329 17.3334Z" fill="#A9A9BF"/>
</svg>
