<svg width="26" height="28" viewBox="0 0 26 28" fill="none" xmlns="http://www.w3.org/2000/svg">
<path fill-rule="evenodd" clip-rule="evenodd" d="M9.16579 27.75C6.81979 27.75 4.58996 26.8065 2.88712 25.0937C-0.495875 21.6895 -0.634708 16.292 2.57687 13.0606L13.0404 2.53473C14.1298 1.43823 15.6003 0.833313 17.1799 0.833313C18.87 0.833313 20.4765 1.5119 21.7019 2.7444C24.14 5.19665 24.2335 9.0939 21.9087 11.4314L11.4325 21.9558C10.7539 22.6401 9.84012 23.0155 8.85979 23.0155C7.82421 23.0155 6.84246 22.6018 6.09729 21.8524C4.60554 20.3493 4.55879 17.9537 5.99387 16.5087L15.6626 6.79748C16.2151 6.24215 17.1105 6.23931 17.6658 6.79181C18.2197 7.34431 18.2225 8.24106 17.67 8.79498L8.00271 18.5076C7.66271 18.8505 7.70946 19.4554 8.10754 19.8549C8.31437 20.0631 8.58921 20.1821 8.85979 20.1821C9.01562 20.1821 9.23946 20.1439 9.42362 19.9583L19.8999 9.4339C21.1281 8.19715 21.036 6.0934 19.693 4.7419C18.4081 3.4499 16.2279 3.3479 15.0492 4.53223L4.58571 15.0581C2.46921 17.1873 2.60804 20.7941 4.89738 23.0962C6.06329 24.2706 7.57912 24.9166 9.16579 24.9166C10.5839 24.9166 11.8985 24.3811 12.8647 23.4093L23.3296 12.8835C23.8807 12.3296 24.7775 12.3253 25.3328 12.8778C25.8867 13.4303 25.8895 14.3256 25.3385 14.881L14.8735 25.4068C13.3719 26.917 11.3446 27.75 9.16579 27.75Z" fill="#29295F"/>
</svg>
