<svg width="18" height="18" viewBox="0 0 18 18" fill="none" xmlns="http://www.w3.org/2000/svg">
<g clip-path="url(#clip0)">
<path d="M12.1254 0.666748H5.87543C2.99939 0.666748 0.667099 2.99904 0.667099 5.87508V12.1251C0.667099 15.0011 2.99939 17.3334 5.87543 17.3334H12.1254C15.0015 17.3334 17.3338 15.0011 17.3338 12.1251V5.87508C17.3338 2.99904 15.0015 0.666748 12.1254 0.666748ZM15.7713 12.1251C15.7713 14.1355 14.1358 15.7709 12.1254 15.7709H5.87543C3.86502 15.7709 2.2296 14.1355 2.2296 12.1251V5.87508C2.2296 3.86466 3.86502 2.22925 5.87543 2.22925H12.1254C14.1358 2.22925 15.7713 3.86466 15.7713 5.87508V12.1251Z" fill="#A9A9BF"/>
<path d="M9.00041 4.8335C6.69936 4.8335 4.83374 6.69912 4.83374 9.00016C4.83374 11.3012 6.69936 13.1668 9.00041 13.1668C11.3014 13.1668 13.1671 11.3012 13.1671 9.00016C13.1671 6.69912 11.3014 4.8335 9.00041 4.8335ZM9.00041 11.6043C7.56499 11.6043 6.39624 10.4356 6.39624 9.00016C6.39624 7.5637 7.56499 6.396 9.00041 6.396C10.4358 6.396 11.6046 7.5637 11.6046 9.00016C11.6046 10.4356 10.4358 11.6043 9.00041 11.6043Z" fill="#A9A9BF"/>
<path d="M13.4796 5.07623C13.7863 5.07623 14.0349 4.82766 14.0349 4.52103C14.0349 4.21439 13.7863 3.96582 13.4796 3.96582C13.173 3.96582 12.9244 4.21439 12.9244 4.52103C12.9244 4.82766 13.173 5.07623 13.4796 5.07623Z" fill="#A9A9BF"/>
</g>
<defs>
<clipPath id="clip0">
<rect width="16.6667" height="16.6667" fill="white" transform="translate(0.667099 0.666748)"/>
</clipPath>
</defs>
</svg>
