<svg width="20" height="18" viewBox="0 0 20 18" fill="none" xmlns="http://www.w3.org/2000/svg">
<path d="M15.5918 17.1992C15.4486 17.1992 15.3064 17.1568 15.1843 17.0741L10.5746 13.9472L8.10222 15.7263C7.90832 15.8657 7.65839 15.9008 7.43323 15.8203C7.20836 15.7396 7.03758 15.5533 6.97662 15.3224L5.73519 10.6177L1.29944 8.92163C1.02019 8.81481 0.834996 8.54766 0.832964 8.24867C0.830932 7.94968 1.01245 7.68001 1.29035 7.56942L18.1567 0.85817C18.2332 0.825659 18.3142 0.806887 18.3959 0.801856C18.4251 0.800114 18.4544 0.800114 18.4836 0.801759C18.6527 0.811822 18.8188 0.880715 18.9485 1.00786C18.9619 1.02102 18.9747 1.03447 18.9868 1.0485C19.0942 1.17119 19.1532 1.32078 19.1644 1.47317C19.1671 1.51149 19.1669 1.55029 19.1635 1.58909C19.1612 1.61677 19.1572 1.64434 19.1516 1.67172L16.3046 16.6094C16.2589 16.8493 16.0955 17.0502 15.8699 17.1438C15.7804 17.1809 15.6859 17.1992 15.5918 17.1992ZM10.9794 12.468L15.0856 15.2532L17.3008 3.63004L9.30001 11.3288L10.96 12.4549C10.9667 12.4591 10.9731 12.4635 10.9794 12.468ZM7.56114 11.8486L8.11093 13.9318L9.29546 13.0795L7.7444 12.0273C7.67232 11.9786 7.61059 11.9178 7.56114 11.8486ZM3.55539 8.23019L6.60119 9.39469C6.81938 9.4781 6.98407 9.66155 7.04367 9.88739L7.42994 11.3513C7.44764 11.1824 7.52418 11.0235 7.64852 10.9039L15.2721 3.56812L3.55539 8.23019Z" fill="#A9A9BF"/>
</svg>
