<svg width="20" height="18" viewBox="0 0 20 18" fill="none" xmlns="http://www.w3.org/2000/svg">
<path d="M0.39414 15.3291C2.24581 16.5041 4.40081 17.1249 6.62581 17.1249C9.88414 17.1249 12.87 15.8732 15.0341 13.6007C17.105 11.4257 18.2441 8.50324 18.1875 5.53741C18.9725 4.86574 19.8958 3.58324 19.8958 2.33324C19.8958 1.85408 19.3758 1.54991 18.9541 1.79408C18.2166 2.22741 17.5441 2.34074 16.8525 2.14658C15.44 0.76991 13.3375 0.47991 11.5658 1.43491C10.0175 2.26824 9.15664 3.79324 9.23414 5.45991C6.61831 5.14074 4.20164 3.82908 2.51664 1.79074C2.23997 1.45824 1.71497 1.49741 1.49497 1.87408C0.683307 3.26408 0.69164 4.87491 1.39747 6.17574C1.06164 6.23491 0.85414 6.51741 0.85414 6.82324C0.85414 8.13074 1.44247 9.33241 2.38997 10.1524C2.21331 10.3224 2.15497 10.5749 2.22997 10.7999C2.64664 12.0516 3.58997 13.0299 4.76914 13.5199C3.48664 14.1324 2.06831 14.3366 0.805807 14.1816C0.152473 14.0932 -0.170027 14.9716 0.39414 15.3291ZM6.79664 13.7341C7.26414 13.3749 7.01581 12.6266 6.42914 12.6141C5.39581 12.5924 4.45497 12.0832 3.86914 11.2824C4.15164 11.2641 4.44414 11.2207 4.72247 11.1457C5.35664 10.9741 5.32664 10.0591 4.68247 9.92991C3.51331 9.69491 2.59581 8.84324 2.25164 7.74657C2.56581 7.82407 2.88581 7.86741 3.20497 7.87324C3.83747 7.87657 4.07664 7.06574 3.56081 6.72657C2.39831 5.96074 1.90247 4.60824 2.23081 3.33658C4.26081 5.39324 7.01497 6.63241 9.92831 6.77241C10.3458 6.79824 10.6591 6.40574 10.5675 6.00824C10.1716 4.29241 11.13 3.08991 12.1591 2.53574C13.1775 1.98574 14.8125 1.81408 16.0658 3.12908C16.4383 3.52157 17.695 3.53658 18.3341 3.38741C18.0475 3.92741 17.6066 4.43991 17.1941 4.72824C17.0183 4.85157 16.9175 5.05657 16.9283 5.27074C17.0625 8.00824 16.0425 10.7299 14.13 12.7374C12.2033 14.7599 9.53914 15.8741 6.62664 15.8741C5.46831 15.8741 4.33247 15.6857 3.25914 15.3224C4.54247 15.0741 5.76164 14.5307 6.79664 13.7341Z" fill="#A9A9BF"/>
</svg>
