<svg width="24" height="12" viewBox="0 0 24 12" fill="none" xmlns="http://www.w3.org/2000/svg">
<path d="M23.4996 5.50022H22.9752C22.724 2.97339 20.5926 1.00024 17.9998 1.00024C15.4071 1.00024 13.2758 2.97339 13.0245 5.50022H10.9752C10.724 2.97339 8.59265 1.00024 5.99987 1.00024C3.40709 1.00024 1.27579 2.97339 1.02454 5.50022H0.500247C0.224108 5.50022 0 5.72395 0 6.00009C0 6.27623 0.224108 6.49959 0.500247 6.49959H1.02468C1.27588 9.02642 3.40723 10.9996 6.00001 10.9996C8.59279 10.9996 10.7241 9.02642 10.9753 6.49959H13.0247C13.2759 9.02642 15.4072 10.9996 18 10.9996C20.5928 10.9996 22.7241 9.02642 22.9753 6.49959H23.4998C23.7759 6.49959 24 6.27618 24 6.00009C24 5.724 23.7758 5.50022 23.4996 5.50022ZM8.82857 8.8287C8.07272 9.5838 7.06857 10.0006 5.99997 10.0006C4.93136 10.0006 3.92721 9.5838 3.17136 8.8287C2.41625 8.07284 2.00024 7.06869 2.00024 6.00009C2.00024 4.93149 2.41625 3.92734 3.17136 3.17148C3.92721 2.41638 4.93136 1.99999 5.99997 1.99999C7.06857 1.99999 8.07272 2.41638 8.82857 3.17148C9.58368 3.92734 9.99969 4.93149 9.99969 6.00009C9.99969 7.06869 9.58368 8.07284 8.82857 8.8287ZM20.8285 8.8287C20.0726 9.5838 19.0685 10.0006 17.9999 10.0006C16.9313 10.0006 15.9271 9.5838 15.1713 8.8287C14.4162 8.07284 14.0002 7.06869 14.0002 6.00009C14.0002 4.93149 14.4162 3.92734 15.1713 3.17148C15.9271 2.41638 16.9313 1.99999 17.9999 1.99999C19.0685 1.99999 20.0726 2.41638 20.8285 3.17148C21.5836 3.92734 21.9996 4.93149 21.9996 6.00009C21.9996 7.06869 21.5836 8.07284 20.8285 8.8287Z" fill="#29295F" stroke="#29295F" stroke-width="0.5"/>
</svg>
