<svg width="16" height="16" viewBox="0 0 16 16" fill="none" xmlns="http://www.w3.org/2000/svg">
<path fill-rule="evenodd" clip-rule="evenodd" d="M11.6665 12.7387C11.5375 12.414 11.3545 12.1305 11.194 11.8882C11.113 11.7667 11.0298 11.643 10.957 11.5155C10.6653 11.0085 10.7658 10.803 11.239 10.0102L11.3155 9.8805C11.6988 9.23475 11.7198 8.61525 11.7393 8.06925C11.7483 7.80075 11.7573 7.548 11.809 7.31025C11.9298 6.76125 13.09 6.615 13.8093 6.52875C13.93 7.0005 13.9998 7.49175 13.9998 8.00025C13.9998 9.927 13.0833 11.64 11.6665 12.7387ZM2.72128 10.8495C3.19828 10.971 3.71503 11.055 4.24078 11.055C5.05078 11.055 5.87803 10.857 6.59353 10.2967C7.88053 9.29025 7.88053 8.00325 7.88053 6.96825C7.88053 6.29925 7.88053 5.7225 8.15953 5.21025C8.30953 4.93575 8.62903 4.74525 8.99878 4.524C9.22528 4.38825 9.46003 4.24875 9.68503 4.07175C10.1673 3.6945 10.5258 3.20925 10.7478 2.67225C11.7978 3.216 12.6678 4.05825 13.2423 5.0895C12.1713 5.238 10.651 5.589 10.3443 6.98925C10.2633 7.35975 10.2505 7.7085 10.2408 8.01675C10.225 8.454 10.213 8.79975 10.0255 9.11625L9.95053 9.24225C9.46528 10.0545 8.91628 10.9755 9.65653 12.2632C9.74578 12.4192 9.84553 12.5692 9.94378 12.7185C10.2018 13.1055 10.3285 13.3192 10.3293 13.5292C9.61303 13.8322 8.82553 14.0002 7.99978 14.0002C5.72203 14.0002 3.73753 12.7237 2.72128 10.8495ZM7.99978 2.00024C8.46178 2.00024 8.90803 2.05724 9.34003 2.15624C9.21328 2.43524 9.01753 2.68949 8.75953 2.89124C8.59603 3.02024 8.41228 3.12749 8.23003 3.23624C7.74178 3.52724 7.18903 3.85724 6.84253 4.49174C6.38053 5.33924 6.38053 6.20474 6.38053 6.96824C6.38053 7.98449 6.34753 8.58524 5.66953 9.11549C4.64278 9.92024 3.07153 9.47099 2.09953 9.06224C2.03803 8.71649 1.99978 8.36249 1.99978 8.00024C1.99978 4.69199 4.69153 2.00024 7.99978 2.00024ZM7.99978 0.500244C3.86428 0.500244 0.499779 3.86474 0.499779 8.00024C0.499779 12.135 3.86428 15.5002 7.99978 15.5002C12.1353 15.5002 15.4998 12.135 15.4998 8.00024C15.4998 3.86474 12.1353 0.500244 7.99978 0.500244Z" fill="#29295F"/>
</svg>
