<svg width="16" height="7" viewBox="0 0 16 7" fill="none" xmlns="http://www.w3.org/2000/svg">
<path d="M8 7C7.99988 7 8.00012 7 8 7C5.17949 7 2.52757 5.90156 0.533261 3.90713C-0.177753 3.19623 -0.177753 2.04341 0.533261 1.3324C0.888767 0.976892 1.35473 0.799079 1.82068 0.799079C2.28664 0.799079 2.7526 0.976892 3.10799 1.3324C4.41471 2.63912 6.15207 3.35863 8 3.35863C9.84793 3.35863 11.5853 2.639 12.892 1.3324C13.6029 0.621507 14.7557 0.621507 15.4667 1.3324C16.1778 2.04329 16.1778 3.19611 15.4667 3.90713C13.4723 5.90156 10.8206 7 8 7Z" fill="white"/>
</svg>
