<svg width="17" height="16" viewBox="0 0 17 16" fill="none" xmlns="http://www.w3.org/2000/svg">
<path fill-rule="evenodd" clip-rule="evenodd" d="M14.0002 0H16.0002C16.5502 0 17.0002 0.45 17.0002 1V15C17.0002 15.55 16.5502 16 16.0002 16H14.0002C13.4502 16 13.0002 15.55 13.0002 15C13.0002 14.45 13.4502 14 14.0002 14H15.0002V2H14.0002C13.4502 2 13.0002 1.55 13.0002 1C13.0002 0.45 13.4502 0 14.0002 0ZM7.4 3.2004C7.844 2.8694 8.469 2.9594 8.8 3.4004L11.8 7.4004C12.06 7.7464 12.068 8.2204 11.818 8.5754L9.004 12.5754C8.809 12.8524 8.5 13.0004 8.185 13.0004C7.987 13.0004 7.786 12.9414 7.611 12.8184C7.159 12.5004 7.05 11.8764 7.368 11.4244L9.086 8.9824C9.07253 8.98375 9.05987 8.98751 9.04729 8.99125C9.03185 8.99584 9.01653 9.0004 9 9.0004H1C0.448 9.0004 0 8.5524 0 8.0004C0 7.4474 0.448 7.0004 1 7.0004H9H9.001L7.2 4.5994C6.869 4.1584 6.958 3.5314 7.4 3.2004Z" fill="white"/>
</svg>
