<svg width="18" height="19" viewBox="0 0 18 19" fill="none" xmlns="http://www.w3.org/2000/svg">
<path fill-rule="evenodd" clip-rule="evenodd" d="M9.00004 18.6667C8.40421 18.6667 7.91671 18.1792 7.91671 17.5834V1.33342C7.91671 0.737583 8.40421 0.250082 9.00004 0.250082C9.59587 0.250082 10.0834 0.737583 10.0834 1.33342V17.5834C10.0834 18.1792 9.59587 18.6667 9.00004 18.6667ZM16.5834 10.0001C15.9875 10.0001 15.5 9.51258 15.5 8.91675V1.33342C15.5 0.737581 15.9875 0.250082 16.5834 0.250082C17.1792 0.250082 17.6667 0.737581 17.6667 1.33342V8.91675C17.6667 9.51258 17.1792 10.0001 16.5834 10.0001ZM0.333374 13.2501C0.333374 13.8459 0.820874 14.3334 1.41671 14.3334C2.01254 14.3334 2.50004 13.8459 2.50004 13.2501V1.33342C2.50004 0.737581 2.01254 0.250082 1.41671 0.250082C0.820874 0.250082 0.333374 0.737581 0.333374 1.33342V13.2501Z" fill="#29295F"/>
</svg>
