<svg width="20" height="30" viewBox="0 0 20 30" fill="none" xmlns="http://www.w3.org/2000/svg">
<path fill-rule="evenodd" clip-rule="evenodd" d="M9.99999 3.66665C8.43741 3.66665 7.16666 4.9374 7.16666 6.49998V13.5833C7.16666 15.1459 8.43741 16.4166 9.99999 16.4166C11.5626 16.4166 12.8333 15.1459 12.8333 13.5833V6.49998C12.8333 4.9374 11.5626 3.66665 9.99999 3.66665ZM15.6667 13.5833C15.6667 16.7085 13.1252 19.25 10 19.25C6.87483 19.25 4.33333 16.7085 4.33333 13.5833V6.49998C4.33333 3.37481 6.87483 0.833313 10 0.833313C13.1252 0.833313 15.6667 3.37481 15.6667 6.49998V13.5833ZM18.5 12.1666C19.2834 12.1666 19.9167 12.8013 19.9167 13.5833C19.9167 18.57 16.2149 22.6953 11.4167 23.3866V26.3333H14.3987C15.0972 26.3333 15.6667 26.9028 15.6667 27.6012V27.8987C15.6667 28.5971 15.0972 29.1666 14.3987 29.1666H5.60125C4.90283 29.1666 4.33333 28.5971 4.33333 27.8987V27.6012C4.33333 26.9028 4.90283 26.3333 5.60125 26.3333H8.58333V23.3866C3.78508 22.6953 0.0833282 18.57 0.0833282 13.5833C0.0833282 12.8013 0.716578 12.1666 1.5 12.1666C2.28341 12.1666 2.91666 12.8013 2.91666 13.5833C2.91666 17.4891 6.09425 20.6666 10 20.6666C13.9057 20.6666 17.0833 17.4891 17.0833 13.5833C17.0833 12.8013 17.7166 12.1666 18.5 12.1666Z" fill="#29295F"/>
</svg>
