<svg width="30" height="30" viewBox="0 0 30 30" fill="none" xmlns="http://www.w3.org/2000/svg">
<path fill-rule="evenodd" clip-rule="evenodd" d="M19.25 23.2704L16.6207 15.3838L24.5087 7.49438L19.25 23.2704ZM22.5055 5.49121L14.6175 13.3792L6.72951 10.7499L22.5055 5.49121ZM29.1525 2.17621C29.1454 2.04446 29.1213 1.91696 29.0774 1.79371C29.0633 1.7498 29.0477 1.7073 29.0278 1.6648C28.9598 1.51321 28.8734 1.37013 28.7516 1.2483C28.6298 1.12646 28.4867 1.04005 28.3337 0.972047C28.2926 0.952213 28.2515 0.93663 28.2076 0.922463C28.0815 0.878547 27.9526 0.853047 27.818 0.845963C27.7868 0.844547 27.7585 0.837463 27.7259 0.837463C27.5843 0.840297 27.4412 0.86013 27.3023 0.905463L1.80234 9.40546C1.22293 9.59955 0.833344 10.1393 0.833344 10.7499C0.833344 11.3605 1.22293 11.9016 1.80234 12.0943L13.8794 16.1205L17.907 28.199C18.0997 28.777 18.6394 29.1665 19.25 29.1665C19.8606 29.1665 20.4003 28.777 20.593 28.199L29.093 2.69896C29.1383 2.55871 29.1596 2.41705 29.161 2.27538C29.1624 2.24138 29.1539 2.21021 29.1525 2.17621Z" fill="#29295F"/>
</svg>
