<svg width="21" height="20" viewBox="0 0 21 20" fill="none" xmlns="http://www.w3.org/2000/svg">
<path fill-rule="evenodd" clip-rule="evenodd" d="M3.40262 9.622C4.51862 10.005 5.40762 10.939 5.77962 12.123L5.81962 12.243C6.24562 13.499 6.07262 14.851 5.35862 15.865C5.22862 16.049 5.25762 16.269 5.39462 16.373L7.46662 17.947C7.53962 18.002 7.61062 18.002 7.65462 17.997C7.70462 17.989 7.77762 17.962 7.83662 17.878L8.06762 17.55C8.75662 16.573 9.86662 15.97 11.0386 15.936C12.3546 15.909 13.5366 16.512 14.2726 17.575L14.3906 17.746C14.4496 17.83 14.5216 17.858 14.5726 17.866C14.6166 17.875 14.6886 17.872 14.7606 17.816L16.8216 16.261C16.9656 16.153 16.9976 15.922 16.8906 15.767L16.6306 15.392C15.9606 14.424 15.7616 13.168 16.0986 12.033C16.4646 10.797 17.3956 9.819 18.5906 9.419L18.7916 9.351C18.9526 9.298 19.0396 9.098 18.9826 8.914L18.1956 6.393C18.1586 6.275 18.0826 6.222 18.0406 6.2C17.9806 6.169 17.9156 6.164 17.8536 6.185L17.5136 6.298C16.3506 6.685 15.0676 6.475 14.0826 5.734L13.9746 5.653C13.0386 4.949 12.4816 3.814 12.4856 2.618L12.4876 2.338C12.4876 2.205 12.4246 2.122 12.3866 2.084C12.3506 2.047 12.2896 2.003 12.2036 2.003L9.65662 2C9.50062 2 9.37362 2.149 9.37262 2.333L9.37162 2.575C9.36662 3.79 8.79762 4.946 7.84962 5.669L7.72062 5.767C6.67762 6.56 5.31762 6.784 4.08562 6.364C4.03862 6.348 3.99462 6.351 3.95262 6.373C3.92062 6.389 3.86262 6.43 3.83462 6.521L3.01762 9.117C2.95862 9.306 3.05562 9.503 3.23862 9.566L3.40262 9.622ZM7.61362 20C7.12762 20 6.65562 19.842 6.25762 19.539L4.18562 17.966C3.19562 17.216 2.97662 15.773 3.69662 14.75C4.07062 14.22 4.14762 13.539 3.92762 12.893L3.87262 12.725C3.68962 12.143 3.27162 11.691 2.75462 11.514H2.75362L2.59062 11.457C1.37262 11.04 0.722624 9.749 1.10962 8.517L1.92562 5.922C2.11062 5.335 2.50962 4.861 3.04962 4.588C3.57762 4.322 4.17462 4.281 4.73262 4.472C5.33162 4.676 5.99662 4.565 6.50962 4.175L6.63862 4.077C7.09462 3.729 7.36962 3.164 7.37162 2.567L7.37262 2.326C7.37762 1.042 8.40262 0 9.65562 0H9.65962L12.2066 0.003C12.8086 0.004 13.3766 0.242 13.8046 0.673C14.2476 1.118 14.4896 1.713 14.4876 2.348L14.4856 2.627C14.4836 3.193 14.7426 3.728 15.1796 4.056L15.2866 4.137C15.7456 4.482 16.3436 4.581 16.8806 4.401L17.2196 4.288C17.7966 4.096 18.4106 4.143 18.9516 4.42C19.5066 4.704 19.9166 5.193 20.1046 5.798L20.8916 8.319C21.2716 9.537 20.6136 10.851 19.4266 11.248L19.2256 11.315C18.6496 11.509 18.1966 11.989 18.0156 12.601C17.8496 13.162 17.9456 13.779 18.2746 14.253L18.5346 14.628C19.2486 15.66 19.0206 17.108 18.0266 17.857L15.9656 19.413C15.4706 19.787 14.8636 19.938 14.2546 19.841C13.6406 19.742 13.1046 19.402 12.7456 18.884L12.6276 18.712C12.2776 18.208 11.7176 17.902 11.1306 17.935C10.5426 17.951 10.0346 18.23 9.70262 18.702L9.47162 19.03C9.10962 19.543 8.57262 19.878 7.96162 19.974C7.84462 19.992 7.72862 20 7.61362 20ZM10.9998 8.4999C10.1728 8.4999 9.49982 9.1729 9.49982 9.9999C9.49982 10.8269 10.1728 11.4999 10.9998 11.4999C11.8268 11.4999 12.4998 10.8269 12.4998 9.9999C12.4998 9.1729 11.8268 8.4999 10.9998 8.4999ZM10.9998 13.4999C9.06982 13.4999 7.49982 11.9299 7.49982 9.9999C7.49982 8.0699 9.06982 6.4999 10.9998 6.4999C12.9298 6.4999 14.4998 8.0699 14.4998 9.9999C14.4998 11.9299 12.9298 13.4999 10.9998 13.4999Z" fill="#29295F"/>
</svg>
