<svg width="26" height="24" viewBox="0 0 26 24" fill="none" xmlns="http://www.w3.org/2000/svg">
<path fill-rule="evenodd" clip-rule="evenodd" d="M22 21.3333C21.264 21.3333 20.6667 20.736 20.6667 20C20.6667 19.264 21.264 18.6667 22 18.6667C22.736 18.6667 23.3333 19.264 23.3333 20C23.3333 20.736 22.736 21.3333 22 21.3333ZM4.66665 13.3333C3.93065 13.3333 3.33331 12.736 3.33331 12C3.33331 11.264 3.93065 10.6667 4.66665 10.6667C5.40265 10.6667 5.99998 11.264 5.99998 12C5.99998 12.736 5.40265 13.3333 4.66665 13.3333ZM22 2.66667C22.736 2.66667 23.3333 3.264 23.3333 4C23.3333 4.73601 22.736 5.33334 22 5.33334C21.264 5.33334 20.6667 4.73601 20.6667 4C20.6667 3.264 21.264 2.66667 22 2.66667ZM22 16C20.9107 16 19.924 16.44 19.2013 17.148L8.62132 12.4467C8.63865 12.2987 8.66665 12.152 8.66665 12C8.66665 11.848 8.63865 11.7013 8.62132 11.5533L19.2013 6.852C19.924 7.56 20.9107 8 22 8C24.2053 8 26 6.20533 26 4C26 1.79467 24.2053 0 22 0C19.7947 0 18 1.79467 18 4C18 4.152 18.028 4.29867 18.0453 4.44667L7.46532 9.148C6.74265 8.44 5.75599 8 4.66666 8C2.46132 8 0.666656 9.79467 0.666656 12C0.666656 14.2053 2.46132 16 4.66666 16C5.75599 16 6.74265 15.56 7.46532 14.852L18.0453 19.5533C18.028 19.7013 18 19.848 18 20C18 22.2053 19.7947 24 22 24C24.2053 24 26 22.2053 26 20C26 17.7947 24.2053 16 22 16Z" fill="#231F20"/>
</svg>
