<svg width="34" height="30" viewBox="0 0 34 30" fill="none" xmlns="http://www.w3.org/2000/svg">
<path d="M27.0644 29.7567C26.8066 29.7567 26.5506 29.6804 26.331 29.5315L18.0335 23.9031L13.5832 27.1053C13.2341 27.3563 12.7843 27.4195 12.379 27.2746C11.9742 27.1293 11.6668 26.7941 11.5571 26.3783L9.32251 17.91L1.33816 14.857C0.835518 14.6647 0.502162 14.1838 0.498505 13.6457C0.494847 13.1075 0.821585 12.6221 1.32179 12.423L31.6812 0.342753C31.819 0.284232 31.9648 0.250444 32.1118 0.241387C32.1644 0.238252 32.2171 0.238252 32.2696 0.241213C32.574 0.259326 32.8731 0.383334 33.1064 0.612189C33.1307 0.635876 33.1536 0.660085 33.1754 0.68534C33.3687 0.906184 33.475 1.17545 33.495 1.44976C33.4999 1.51873 33.4995 1.58857 33.4934 1.65841C33.4893 1.70822 33.4821 1.75786 33.472 1.80715L28.3475 28.6949C28.2651 29.1269 27.9711 29.4884 27.565 29.6569C27.4039 29.7237 27.2337 29.7567 27.0644 29.7567ZM18.762 21.2404L26.1532 26.2538L30.1405 5.33212L15.7392 19.1899L18.7272 21.2169C18.7392 21.2244 18.7507 21.2324 18.762 21.2404ZM12.6092 20.1255L13.5988 23.8754L15.731 22.3411L12.9391 20.4472C12.8093 20.3595 12.6982 20.2501 12.6092 20.1255ZM5.39887 13.6124L10.8813 15.7085C11.2741 15.8586 11.5705 16.1888 11.6778 16.5954L12.3731 19.2303C12.4049 18.9264 12.5427 18.6404 12.7665 18.425L26.489 5.22066L5.39887 13.6124Z" fill="#29295F"/>
</svg>
