<svg width="89" height="89" viewBox="0 0 89 89" fill="none" xmlns="http://www.w3.org/2000/svg">
<g clip-path="url(#clip0)">
<path d="M69.9547 35.8137C71.2451 27.8533 65.838 20.354 57.8776 19.0635C49.9172 17.7731 42.4179 23.1802 41.1275 31.1406C39.837 39.101 45.2441 46.6003 53.2045 47.8908C61.1649 49.1812 68.6642 43.7741 69.9547 35.8137Z" fill="#FFE07D"/>
<path d="M55.5539 18.875C54.8657 18.875 54.1896 18.9261 53.5265 19.0183C60.6317 20.0057 66.1025 26.1016 66.1025 33.4785C66.1025 40.8553 60.6317 46.9512 53.5265 47.9386C54.1894 48.0307 54.8655 48.0819 55.5539 48.0819C63.6192 48.0819 70.1574 41.5437 70.1574 33.4785C70.1574 25.4132 63.6192 18.875 55.5539 18.875Z" fill="#FFD064"/>
<path d="M55.5503 14.3559C54.82 14.3559 54.2279 13.7639 54.2279 13.0335V1.35096C54.2279 0.62066 54.8198 0.0288086 55.5503 0.0288086C56.2807 0.0288086 56.8726 0.620833 56.8726 1.35096V13.0337C56.8726 13.7639 56.2806 14.3559 55.5503 14.3559Z" fill="#FFE07D"/>
<path d="M87.678 34.8007H75.9952C75.2649 34.8007 74.6729 34.2087 74.6729 33.4784C74.6729 32.7481 75.2648 32.1562 75.9952 32.1562H87.678C88.4083 32.1562 89.0002 32.7483 89.0002 33.4784C89.0002 34.2087 88.4083 34.8007 87.678 34.8007Z" fill="#FFE07D"/>
<path d="M35.1055 34.8007H23.4228C22.6925 34.8007 22.1006 34.2087 22.1006 33.4784C22.1006 32.7481 22.6925 32.1562 23.4228 32.1562H35.1055C35.8358 32.1562 36.4277 32.7483 36.4277 33.4784C36.4279 34.2087 35.8358 34.8007 35.1055 34.8007Z" fill="#FFE07D"/>
<path d="M70.007 20.3442C69.6688 20.3442 69.3302 20.2151 69.0719 19.957C68.5556 19.4407 68.5556 18.6034 69.0719 18.0871L77.3328 9.82618C77.8492 9.30989 78.6864 9.30989 79.2028 9.82618C79.7191 10.3425 79.7191 11.1798 79.2028 11.6961L70.942 19.957C70.6838 20.2149 70.3454 20.3442 70.007 20.3442Z" fill="#FFE07D"/>
<path d="M78.268 57.5183C77.9296 57.5183 77.5912 57.3892 77.333 57.1311L69.0721 48.87C68.5559 48.3537 68.5559 47.5164 69.0721 47.0001C69.5888 46.4837 70.4259 46.4837 70.9422 47.0001L79.2031 55.2612C79.7194 55.7775 79.7194 56.6148 79.2031 57.1311C78.9448 57.3891 78.6064 57.5183 78.268 57.5183Z" fill="#FFE07D"/>
<path d="M41.0937 20.3442C40.7555 20.3442 40.4169 20.2151 40.1586 19.957L31.8977 11.6961C31.3814 11.1798 31.3814 10.3425 31.8977 9.82618C32.4142 9.30989 33.2513 9.30989 33.7678 9.82618L42.0287 18.0871C42.5449 18.6034 42.5449 19.4407 42.0287 19.957C41.7705 20.2149 41.4321 20.3442 41.0937 20.3442Z" fill="#FFE07D"/>
<path d="M47.7269 15.9126C47.208 15.9126 46.7157 15.6051 46.5048 15.096L44.2694 9.69929C43.9897 9.02458 44.3102 8.2512 44.9849 7.97169C45.6595 7.692 46.433 8.01268 46.7126 8.68722L48.9479 14.0839C49.2275 14.7586 48.9071 15.532 48.2324 15.8115C48.067 15.8801 47.8956 15.9126 47.7269 15.9126Z" fill="#FFF0AF"/>
<path d="M36.6614 26.9772C36.4927 26.9772 36.3214 26.9447 36.1559 26.8762L30.7592 24.6409C30.0845 24.3613 29.7642 23.588 30.0437 22.9132C30.3233 22.2385 31.0969 21.9182 31.7713 22.1977L37.1679 24.4331C37.8427 24.7126 38.163 25.486 37.8835 26.1607C37.6724 26.6699 37.1803 26.9772 36.6614 26.9772Z" fill="#FFF0AF"/>
<path d="M79.8351 44.8603C79.6664 44.8603 79.4951 44.8278 79.3296 44.7594L73.9329 42.524C73.2582 42.2445 72.9379 41.4711 73.2174 40.7964C73.4969 40.1217 74.2705 39.8017 74.9448 40.0809L80.3415 42.3162C81.0162 42.5958 81.3365 43.3693 81.057 44.0439C80.8463 44.5528 80.354 44.8603 79.8351 44.8603Z" fill="#FFF0AF"/>
<path d="M74.4393 26.9771C73.9204 26.9771 73.4281 26.6697 73.2172 26.1605C72.9377 25.486 73.258 24.7124 73.9327 24.4329L79.3294 22.1975C80.0041 21.9178 80.7775 22.2385 81.0568 22.9131C81.3365 23.5876 81.016 24.3612 80.3413 24.6407L74.9446 26.876C74.7794 26.9448 74.608 26.9771 74.4393 26.9771Z" fill="#FFF0AF"/>
<path d="M63.3737 15.9125C63.205 15.9125 63.0337 15.8801 62.8682 15.8116C62.1935 15.5321 61.873 14.7587 62.1527 14.084L64.388 8.68735C64.6677 8.01263 65.4414 7.69247 66.1156 7.97181C66.7904 8.25132 67.1107 9.0247 66.8312 9.69942L64.5956 15.0959C64.3847 15.6051 63.8926 15.9125 63.3737 15.9125Z" fill="#FFF0AF"/>
<path d="M75.9378 65.6058H75.9338C75.7186 65.6058 75.5334 65.4611 75.4731 65.2544C74.058 60.3949 69.5713 56.8438 64.255 56.8438C62.2672 56.8438 60.3965 57.3416 58.7583 58.218C58.1163 58.5615 57.3192 58.382 56.911 57.779C55.3359 55.4525 52.6729 53.9231 49.6518 53.9231C48.9453 53.9231 48.2584 54.0071 47.6005 54.1654C46.8878 54.3369 46.1517 53.9538 45.9216 53.2577C43.8057 46.8584 37.7762 42.2405 30.6674 42.2405C21.7957 42.2405 14.6037 49.4325 14.6037 58.3042C14.6037 58.5057 14.6089 58.7058 14.6172 58.9051C14.6255 59.1024 14.5608 59.2959 14.4393 59.4516L14.4268 59.4677C14.2746 59.6626 14.0443 59.7778 13.7973 59.7912C6.02434 60.2147 -0.13199 66.7124 0.00246627 74.6219C0.138312 82.6177 6.79008 88.9713 14.7871 88.9713H75.7639C82.1846 88.9713 87.5365 83.8639 87.6199 77.4437C87.7041 70.9205 82.4416 65.6058 75.9378 65.6058Z" fill="#ECF4FF"/>
<path d="M75.9378 65.6058H75.9338C75.7186 65.6058 75.5334 65.4611 75.4731 65.2544C74.058 60.3949 69.5713 56.8438 64.255 56.8438C62.2672 56.8438 60.3965 57.3416 58.7583 58.218C58.1163 58.5615 57.3192 58.382 56.911 57.779C55.3359 55.4525 52.6729 53.9231 49.6518 53.9231C48.9453 53.9231 48.2584 54.0071 47.6005 54.1654C46.8878 54.3369 46.1517 53.9538 45.9216 53.2577C43.8057 46.8584 37.7762 42.2405 30.6674 42.2405C21.7957 42.2405 14.6037 49.4325 14.6037 58.3042C14.6037 58.5057 14.6089 58.7058 14.6172 58.9051C14.6255 59.1024 14.5608 59.2959 14.4393 59.4516L14.4268 59.4677C14.2746 59.6626 14.0443 59.7778 13.7973 59.7912C6.02434 60.2147 -0.13199 66.7124 0.00246627 74.6219C0.138312 82.6177 6.79008 88.9713 14.7871 88.9713H75.7639C82.1846 88.9713 87.5365 83.8639 87.6199 77.4437C87.7041 70.9205 82.4416 65.6058 75.9378 65.6058Z" fill="#F4F3F8"/>
<path d="M75.9377 65.6058H75.9337C75.7185 65.6058 75.5333 65.4611 75.473 65.2544C74.0579 60.3949 69.5712 56.8438 64.255 56.8438C63.5638 56.8438 62.8871 56.9052 62.2289 57.0206C66.6321 57.7917 70.1874 61.0274 71.4182 65.2544C71.4783 65.4609 71.6636 65.6058 71.8789 65.6058H71.8828C78.3866 65.6058 83.6492 70.9203 83.5646 77.4437C83.4814 83.8639 78.1293 88.9714 71.7086 88.9714H75.7635C82.1842 88.9714 87.5361 83.8639 87.6194 77.4437C87.704 70.9205 82.4415 65.6058 75.9377 65.6058Z" fill="#ECEBF3"/>
<path d="M27.8846 74.3681C27.8846 75.0984 28.4766 75.6904 29.2067 75.6904C29.937 75.6904 30.5289 75.0986 30.5289 74.3681C30.5289 65.3258 23.5139 57.8915 14.6404 57.2209C14.6166 57.5791 14.6033 57.9401 14.6033 58.3042C14.6033 58.5058 14.6085 58.7059 14.6168 58.9051C14.6252 59.1025 14.5604 59.296 14.4389 59.4516L14.4264 59.4678C14.2743 59.6627 14.0439 59.7779 13.7969 59.7912C13.6796 59.7977 13.5641 59.8098 13.4475 59.8189C21.4187 59.8812 27.8846 66.3827 27.8846 74.3681Z" fill="#ECEBF3"/>
<path d="M47.4546 54.1922C46.7896 54.2827 46.1358 53.9064 45.9212 53.2578C45.7885 52.8563 45.6402 52.4618 45.4774 52.075C40.5941 53.8 37.0845 58.4601 37.0845 63.9266C37.0845 64.6569 37.6765 65.2489 38.4066 65.2489C39.1368 65.2489 39.7288 64.657 39.7288 63.9266C39.7288 59.2102 43.0372 55.2137 47.4544 54.1995V54.1922H47.4546Z" fill="#ECEBF3"/>
<path d="M65.5774 77.9498C65.5774 77.2195 64.9854 76.6274 64.2552 76.6274C63.5251 76.6274 62.9329 77.2193 62.9329 77.9498C62.9329 82.4697 65.14 86.4822 68.5316 88.9714H75.7638C75.9053 88.9714 76.0457 88.9658 76.1861 88.9609C70.2995 88.7426 65.5774 83.8886 65.5774 77.9498Z" fill="#ECEBF3"/>
</g>
<defs>
<clipPath id="clip0">
<rect width="89" height="89" fill="white"/>
</clipPath>
</defs>
</svg>
