<svg width="95" height="91" viewBox="0 0 95 91" fill="none" xmlns="http://www.w3.org/2000/svg">
<path d="M87.2615 47.4039L87.2146 47.3658C87.2146 47.3658 86.8778 47.0275 86.4044 46.4523C87.1716 44.5925 88.1184 42.8107 89.2315 41.1318C94.1905 33.519 95.4697 28.0885 93.2481 23.9819C91.0266 19.8752 85.3001 17.6632 75.8468 17.3418C75.446 8.60825 73.2884 3.292 69.2078 1.10544C65.0206 -1.14457 59.4007 0.0734801 51.5763 4.91183C50.2343 5.74637 48.8367 6.48961 47.3933 7.13644C45.8944 6.48475 44.4438 5.72864 43.0526 4.87377C35.1088 0.0311883 29.4504 -1.16571 25.2419 1.11812C21.1826 3.32583 19.008 8.63785 18.6242 17.3376C9.31593 17.6886 3.70027 19.8752 1.48726 23.9776C-0.725746 28.0801 0.557714 33.5274 5.51246 41.1149C6.70642 42.9239 7.70676 44.8517 8.49725 46.8667L7.68709 47.7126L7.65724 47.7422C0.881776 55.2154 -1.41225 61.4706 0.834872 66.3512C3.06493 71.1515 9.62293 73.8963 18.9653 73.964C19.6646 82.5538 22.5257 88.3183 27.1138 90.2681C28.2827 90.76 29.5409 91.009 30.8107 90.9998C34.87 90.9998 39.6542 88.6482 45.0907 83.9706L45.1547 83.9114C45.8978 83.238 46.6981 82.6295 47.5468 82.0928L49.5594 83.9325L49.5978 83.9706C55.0386 88.6482 59.8313 90.9998 63.8821 90.9998C65.1723 91.0087 66.4502 90.7508 67.6344 90.2427C72.3248 88.2168 75.1859 82.2281 75.7743 73.3254C85.492 72.9659 92.1907 70.0604 94.2715 65.2431C96.3481 60.5148 93.9773 54.5091 87.2615 47.4039ZM50.9324 26.2572C57.5834 22.8728 64.9125 21.0045 72.3845 20.7887C72.3499 27.9492 70.5866 34.9974 67.2421 41.3432C62.7897 35.3661 57.2599 30.2583 50.9324 26.2784V26.2572ZM65.3276 44.7225C61.021 51.557 54.8595 57.5754 47.4189 62.2149C40.3375 57.5632 34.2872 51.5276 29.6381 44.4772C34.0257 38.1332 40.2724 32.4109 47.4103 28.2112C54.6079 32.4701 60.9186 38.2812 65.3276 44.7225ZM26.9518 4.20552C29.8513 2.63222 34.6525 3.86295 41.2191 7.86812C42.9559 8.9406 44.7802 9.86723 46.6727 10.6383L46.7537 10.6722H46.8091H46.8347C56.7144 14.5928 62.4664 11.057 62.7052 10.9048C63.0993 10.6531 63.3772 10.2574 63.4786 9.80357C63.58 9.34976 63.4967 8.87459 63.2468 8.48138C63.1228 8.28834 62.9617 8.12142 62.7726 7.99016C62.5836 7.8589 62.3703 7.76586 62.145 7.71638C61.9197 7.66689 61.6867 7.66191 61.4595 7.70174C61.2322 7.74157 61.0151 7.82541 60.8206 7.94848C60.6671 8.04153 57.6737 9.79247 52.1348 8.63786C52.5612 8.39256 53.009 8.13035 53.4481 7.85967C59.9209 3.8545 64.6582 2.60262 67.5193 4.14632C70.3804 5.69002 71.9538 10.0674 72.3035 17.2784C63.9034 17.4433 55.3243 19.816 47.3677 24.1468C39.3173 19.7652 30.6358 17.3799 22.1463 17.2741C22.4959 10.1477 24.1034 5.76615 26.9518 4.20552ZM43.8286 26.2784C37.5644 30.2257 32.0815 35.277 27.6511 41.1825C24.0437 34.6101 22.1804 27.7713 22.1079 20.8056C29.6676 20.9814 37.089 22.8524 43.8158 26.2784H43.8286ZM18.8502 70.4748C11.239 70.3649 5.65743 68.2756 4.08402 64.8837C2.56178 61.589 4.48057 56.7464 9.6272 50.8465C10.3947 55.4988 8.84263 58.0364 8.72324 58.214C8.48977 58.5998 8.41498 59.0599 8.51437 59.4988C8.61377 59.9378 8.87973 60.322 9.25707 60.5717C9.63441 60.8214 10.0942 60.9175 10.541 60.8399C10.9878 60.7624 11.3874 60.5172 11.6569 60.1553C11.8743 59.8338 16.9144 52.1407 8.47593 39.2159C4.40383 32.9819 3.1033 28.41 4.59996 25.6271C6.14779 22.7553 10.8424 21.1524 18.5688 20.8395C18.6626 28.9386 20.9694 36.8559 25.4338 44.4053C24.0243 46.6361 22.8362 48.9973 21.8861 51.4556C19.8863 56.7253 18.7521 63.8602 18.8502 70.4748ZM25.1822 52.7117C25.8413 50.996 26.6325 49.3332 27.5487 47.738C32.0105 54.1375 37.5834 59.6996 44.0077 64.1647C42.3021 65.0951 40.5411 65.941 38.7502 66.7023C33.5318 68.8411 27.9882 70.0949 22.3509 70.4114C22.287 64.2112 23.3316 57.5669 25.1822 52.7117ZM66.2486 87.0707C65.2065 87.4969 64.0677 87.6358 62.9526 87.4725C62.7564 87.4471 62.5603 87.4175 62.3599 87.3794L61.9548 87.2949L61.4644 87.168L61.2683 87.1088L61.0338 87.0368C60.9186 87.003 60.8078 86.965 60.6926 86.9227L60.4325 86.8296C60.0488 86.69 59.6608 86.5251 59.2557 86.339C59.0169 86.2291 58.7738 86.1106 58.5265 85.9795C58.3944 85.9161 58.2664 85.8484 58.1385 85.7765C57.887 85.6412 57.6311 85.4974 57.3753 85.3536C56.7229 84.9729 56.0534 84.5373 55.3627 84.0552C55.094 83.8649 54.8212 83.6703 54.544 83.4631C54.1176 83.1501 53.6912 82.816 53.2648 82.465C52.9748 82.2281 52.6849 81.9913 52.412 81.7418C52.2699 81.629 52.1277 81.5105 51.9856 81.3865L51.0091 80.4941C53.8532 79.5256 57.3156 79.4706 60.3899 82.5834C60.5512 82.7481 60.7435 82.8796 60.9561 82.9705C61.1686 83.0615 61.3971 83.11 61.6285 83.1133C61.86 83.1167 62.0898 83.0748 62.3049 82.99C62.52 82.9052 62.7162 82.7793 62.8822 82.6193C63.0482 82.4594 63.1809 82.2685 63.2725 82.0577C63.3642 81.8469 63.4131 81.6203 63.4165 81.3908C63.4199 81.1612 63.3776 80.9332 63.2922 80.7199C63.2067 80.5065 63.0797 80.312 62.9184 80.1473C59.196 76.3409 54.48 75.402 49.2737 77.4194C48.5063 77.721 47.7586 78.0699 47.0351 78.464C45.5342 79.2757 44.1346 80.2595 42.8649 81.3949C36.8954 86.5463 31.9492 88.5171 28.6105 87.1003C25.3613 85.7173 23.2037 80.9593 22.6068 73.9259C28.6454 73.5682 34.5814 72.2131 40.1701 69.9165C42.6351 68.8675 45.0331 67.6697 47.3507 66.3301C49.2154 67.477 51.1444 68.5177 53.1283 69.4471C57.9935 71.7182 65.1954 73.1689 72.2864 73.3465C71.7449 80.6633 69.5916 85.6158 66.2486 87.0622V87.0707ZM54.6079 66.292C53.3074 65.683 51.9984 65.0232 50.6979 64.2619C57.2714 59.9883 62.9322 54.4727 67.3573 48.0298C68.2075 49.5343 68.9444 51.0992 69.5617 52.7117C71.3398 57.3639 72.3887 63.8137 72.3887 69.8531C65.8094 69.6797 58.9956 68.3306 54.6079 66.2836V66.292ZM91.0565 63.8771C89.5683 67.3198 83.9655 69.4978 75.9151 69.832C75.9151 63.3949 74.7766 56.5138 72.8578 51.4809C71.9377 49.1064 70.7956 46.8225 69.4466 44.659C73.6316 37.4083 75.8541 29.2069 75.898 20.8522C83.7778 21.1355 88.5578 22.7427 90.1312 25.6482C91.6364 28.4269 90.3316 32.9988 86.2595 39.2413C84.824 41.4006 83.6436 43.7166 82.7417 46.1435V46.1816C79.6077 54.9067 82.9464 59.9692 83.0913 60.1806C83.3608 60.5426 83.7604 60.7878 84.2072 60.8653C84.654 60.9428 85.1138 60.8468 85.4911 60.5971C85.8685 60.3474 86.1344 59.9632 86.2338 59.5242C86.3332 59.0852 86.2584 58.6251 86.0249 58.2394C85.9397 58.1083 84.2469 55.3973 85.2233 50.3813C90.4211 56.0274 92.4337 60.6882 91.0565 63.8686V63.8771Z" fill="#00B1B9"/>
</svg>
