<svg width="247" height="52" viewBox="0 0 247 52" fill="none" xmlns="http://www.w3.org/2000/svg">
<path d="M49.4584 27.0879L49.4319 27.0662C49.4319 27.0662 49.2409 26.8728 48.9727 26.5441C49.4075 25.4814 49.9441 24.4633 50.575 23.5039C53.3857 19.1537 54.1107 16.0506 52.8516 13.7039C51.5924 11.3572 48.3467 10.0933 42.9888 9.90961C42.7616 4.919 41.5387 1.88114 39.2259 0.631677C36.8526 -0.654038 33.6674 0.0419886 29.2326 2.80676C28.472 3.28364 27.6799 3.70835 26.8618 4.07797C26.0122 3.70557 25.1901 3.27351 24.4015 2.78501C19.8991 0.0178219 16.692 -0.666122 14.3067 0.638927C12.006 1.90047 10.7734 4.93592 10.5559 9.90719C5.28012 10.1078 2.09725 11.3572 0.842956 13.7015C-0.411341 16.0458 0.316103 19.1585 3.12438 23.4942C3.80109 24.528 4.36807 25.6295 4.81611 26.781L4.35692 27.2643L4.34 27.2813C0.499777 31.5517 -0.800439 35.1261 0.473192 37.915C1.73716 40.658 5.45413 42.2265 10.7492 42.2652C11.1456 47.1736 12.7672 50.4676 15.3677 51.5817C16.0302 51.8628 16.7433 52.0051 17.463 51.9999C19.7637 51.9999 22.4753 50.6561 25.5567 47.9832L25.593 47.9494C26.0141 47.5646 26.4678 47.2169 26.9488 46.9102L28.0895 47.9615L28.1112 47.9832C31.195 50.6561 33.9114 51.9999 36.2074 51.9999C36.9386 52.005 37.6629 51.8576 38.3341 51.5672C40.9925 50.4096 42.6142 46.9875 42.9477 41.9002C48.4555 41.6948 52.2522 40.0345 53.4316 37.2818C54.6086 34.5799 53.2648 31.1481 49.4584 27.0879ZM28.8677 15.0041C32.6373 13.0702 36.7914 12.0025 41.0264 11.8793C41.0068 15.971 40.0074 19.9985 38.1118 23.6247C35.5882 20.2092 32.454 17.2905 28.8677 15.0162V15.0041ZM37.0266 25.5557C34.5857 29.4612 31.0935 32.9002 26.8763 35.5514C22.8627 32.8932 19.4335 29.4443 16.7984 25.4155C19.2852 21.7904 22.8258 18.5205 26.8714 16.1207C30.9509 18.5543 34.5277 21.875 37.0266 25.5557ZM15.2758 2.40316C16.9192 1.50412 19.6405 2.2074 23.3623 4.49607C24.3468 5.10892 25.3807 5.63842 26.4533 6.07904L26.4993 6.09838H26.5307H26.5452C32.1448 8.33872 35.405 6.3183 35.5403 6.2313C35.7637 6.08751 35.9212 5.86136 35.9787 5.60204C36.0361 5.34272 35.9889 5.07119 35.8473 4.8465C35.777 4.73619 35.6857 4.64081 35.5785 4.5658C35.4714 4.4908 35.3505 4.43764 35.2228 4.40936C35.0951 4.38108 34.9631 4.37824 34.8343 4.40099C34.7055 4.42375 34.5824 4.47166 34.4721 4.54199C34.3851 4.59516 32.6886 5.5957 29.5492 4.93592C29.7909 4.79575 30.0446 4.64591 30.2936 4.49124C33.9622 2.20257 36.6472 1.48721 38.2689 2.36933C39.8905 3.25144 40.7823 5.75278 40.9805 9.87335C36.2194 9.96761 31.3569 11.3234 26.8473 13.7982C22.2844 11.2944 17.3639 9.93135 12.5521 9.87094C12.7503 5.7987 13.6614 3.29494 15.2758 2.40316ZM24.8414 15.0162C21.2909 17.2718 18.1833 20.1583 15.6722 23.5329C13.6276 19.7772 12.5715 15.8693 12.5304 11.8889C16.8151 11.9894 21.0215 13.0585 24.8341 15.0162H24.8414ZM10.684 40.2713C6.37008 40.2085 3.20654 39.0146 2.31476 37.0764C1.45198 35.1937 2.53952 32.4265 5.45654 29.0552C5.89156 31.7136 5.01186 33.1636 4.94419 33.2652C4.81187 33.4856 4.76948 33.7485 4.82581 33.9993C4.88215 34.2502 5.03289 34.4697 5.24676 34.6124C5.46063 34.7551 5.72122 34.81 5.97447 34.7657C6.22772 34.7214 6.4542 34.5813 6.60692 34.3744C6.73018 34.1908 9.58679 29.7947 4.80402 22.4091C2.49602 18.8468 1.7589 16.2343 2.60719 14.644C3.48447 13.0031 6.14532 12.0871 10.5245 11.9083C10.5777 16.5364 11.8851 21.0605 14.4155 25.3744C13.6166 26.6492 12.9432 27.9984 12.4047 29.4032C11.2713 32.4145 10.6284 36.4915 10.684 40.2713ZM14.2729 30.1209C14.6465 29.1406 15.0949 28.1904 15.6142 27.2788C18.143 30.9357 21.3017 34.1141 24.9429 36.6655C23.9762 37.1972 22.978 37.6806 21.963 38.1156C19.0053 39.3377 15.8633 40.0542 12.6681 40.2351C12.6319 36.6921 13.224 32.8954 14.2729 30.1209ZM37.5487 49.7547C36.958 49.9982 36.3125 50.0776 35.6805 49.9843C35.5693 49.9698 35.4582 49.9529 35.3446 49.9311L35.115 49.8828L34.8371 49.8103L34.7259 49.7764L34.593 49.7353C34.5277 49.716 34.4649 49.6943 34.3996 49.6701L34.2522 49.6169C34.0347 49.5372 33.8148 49.4429 33.5852 49.3366C33.4498 49.2738 33.3121 49.2061 33.1719 49.1312C33.097 49.0949 33.0245 49.0562 32.952 49.0152C32.8094 48.9378 32.6644 48.8556 32.5194 48.7735C32.1496 48.556 31.7702 48.307 31.3787 48.0315C31.2264 47.9228 31.0718 47.8116 30.9147 47.6932C30.673 47.5144 30.4313 47.3234 30.1896 47.1228C30.0253 46.9875 29.861 46.8522 29.7063 46.7096C29.6257 46.6451 29.5452 46.5774 29.4646 46.5066L28.9112 45.9966C30.5231 45.4432 32.4856 45.4118 34.228 47.1905C34.3194 47.2846 34.4285 47.3598 34.5489 47.4117C34.6694 47.4637 34.7989 47.4914 34.9301 47.4933C35.0613 47.4952 35.1915 47.4713 35.3134 47.4229C35.4354 47.3744 35.5465 47.3025 35.6406 47.2111C35.7347 47.1197 35.8099 47.0106 35.8619 46.8901C35.9138 46.7697 35.9416 46.6402 35.9435 46.509C35.9454 46.3778 35.9214 46.2476 35.873 46.1257C35.8246 46.0037 35.7526 45.8926 35.6612 45.7985C33.5513 43.6234 30.8784 43.0868 27.9275 44.2396C27.4926 44.412 27.0688 44.6114 26.6588 44.8366C25.8081 45.3004 25.0148 45.8625 24.2952 46.5114C20.9117 49.455 18.1083 50.5812 16.216 49.7716C14.3744 48.9813 13.1515 46.2625 12.8132 42.2434C16.2357 42.039 19.6002 41.2647 22.7678 39.9523C24.1649 39.3528 25.5241 38.6684 26.8376 37.9029C27.8945 38.5583 28.9878 39.153 30.1123 39.6841C32.8698 40.9819 36.9517 41.8108 40.9708 41.9123C40.6639 46.0933 39.4434 48.9233 37.5487 49.7498V49.7547ZM30.9509 37.8812C30.2138 37.5331 29.4719 37.1561 28.7348 36.7211C32.4605 34.279 35.669 31.1272 38.177 27.4456C38.6589 28.3053 39.0766 29.1996 39.4265 30.1209C40.4343 32.7794 41.0288 36.4649 41.0288 39.9161C37.2997 39.817 33.4378 39.046 30.9509 37.8763V37.8812ZM51.6094 36.5012C50.7659 38.4684 47.5903 39.7131 43.0275 39.904C43.0275 36.2257 42.3822 32.2936 41.2946 29.4177C40.7731 28.0608 40.1258 26.7557 39.3612 25.5194C41.7332 21.3762 42.9929 16.6897 43.0178 11.9155C47.484 12.0774 50.1931 12.9958 51.0849 14.6561C51.938 16.2439 51.1985 18.8564 48.8905 22.4236C48.0769 23.6575 47.4079 24.9809 46.8967 26.3677V26.3895C45.1204 31.3752 47.0127 34.2681 47.0949 34.3889C47.2476 34.5958 47.4741 34.7359 47.7273 34.7802C47.9806 34.8245 48.2411 34.7696 48.455 34.6269C48.6689 34.4842 48.8196 34.2647 48.876 34.0138C48.9323 33.763 48.8899 33.5001 48.7576 33.2797C48.7092 33.2047 47.7498 31.6556 48.3032 28.7893C51.2493 32.0157 52.39 34.679 51.6094 36.4964V36.5012Z" fill="#00B1B9"/>
<path d="M76.7522 26.0125C75.703 26.0457 74.658 25.8657 73.6805 25.4833C73.308 25.3203 72.9498 25.1263 72.6098 24.9032C72.2298 24.6461 71.8695 24.3609 71.532 24.0501L73.347 22.2448C73.7177 22.6285 74.1614 22.9342 74.652 23.1438C75.1849 23.3531 75.7498 23.4692 76.322 23.487H76.5637C76.9756 23.5009 77.3862 23.4335 77.7721 23.2888C78.0518 23.1881 78.2905 22.9978 78.4512 22.7475C78.584 22.5286 78.6566 22.2785 78.6614 22.0225C78.6593 21.7661 78.5866 21.5152 78.4512 21.2974C78.1684 20.8141 77.4506 20.512 76.293 20.3984C75.2722 20.2901 74.2874 19.9602 73.4074 19.4317C72.5196 18.9049 72.0766 17.9841 72.0782 16.6694C72.0706 16.1108 72.2036 15.5592 72.465 15.0655C72.7264 14.5718 73.1078 14.1518 73.5741 13.8442C74.4661 13.1767 75.5487 12.8133 76.6628 12.8074C77.855 12.8074 78.8032 12.954 79.5073 13.2472C79.828 13.3849 80.1333 13.5558 80.4184 13.7572C80.775 14.0129 81.1141 14.2923 81.4334 14.5934L79.6305 16.389C79.3075 16.0465 78.9198 15.7713 78.4898 15.5794C78.0746 15.4119 77.63 15.3297 77.1824 15.3377C76.1496 15.3377 75.4898 15.5794 75.203 16.0627C75.072 16.2621 74.9984 16.4937 74.9904 16.7322C74.9915 16.9364 75.0671 17.1332 75.203 17.2856C75.4007 17.5002 75.6504 17.6601 75.9281 17.7496C76.3371 17.8989 76.7621 18.0003 77.1944 18.0517C78.2762 18.177 79.3134 18.5544 80.2226 19.1538C81.1378 19.7692 81.5953 20.7609 81.5953 22.1288C81.5953 23.1841 81.112 24.0936 80.1453 24.8573C79.1834 25.626 77.9833 26.0346 76.7522 26.0125Z" fill="#29295F"/>
<path d="M97.5835 26.0126L94.9855 16.505L92.3899 26.0126H89.6952L86.1667 12.8098H89.0548L91.3072 21.6116L93.6394 12.8098H96.421L98.6662 21.6116L100.911 12.8098H103.797L100.269 26.0126H97.5835Z" fill="#29295F"/>
<path d="M108.805 12.7976H111.55V26.0124H108.805V12.7976Z" fill="#29295F"/>
<path d="M121.793 26.0126C120.741 26.046 119.694 25.8651 118.714 25.4809C118.342 25.3184 117.983 25.1244 117.644 24.9009C117.263 24.6443 116.903 24.3591 116.566 24.0477L118.378 22.2424C118.75 22.6262 119.195 22.9318 119.686 23.1415C120.218 23.3505 120.782 23.4666 121.353 23.4846H121.61C122.021 23.4985 122.432 23.4311 122.818 23.2865C123.097 23.1857 123.335 22.9953 123.495 22.7451C123.629 22.5268 123.703 22.2764 123.707 22.0201C123.706 21.7633 123.632 21.5121 123.495 21.295C123.214 20.8117 122.494 20.5096 121.339 20.396C120.313 20.2899 119.323 19.9599 118.439 19.4293C117.554 18.9025 117.111 17.9817 117.11 16.667C117.103 16.1085 117.236 15.5572 117.497 15.0636C117.759 14.57 118.14 14.1499 118.606 13.8418C119.496 13.1674 120.58 12.7971 121.697 12.7856C122.889 12.7856 123.836 12.9323 124.539 13.2255C124.86 13.3627 125.165 13.5336 125.45 13.7354C125.807 13.9911 126.147 14.2705 126.467 14.5716L124.662 16.3673C124.339 16.0254 123.952 15.7503 123.524 15.5577C123.108 15.3904 122.664 15.3082 122.216 15.316C121.182 15.316 120.521 15.5577 120.234 16.041C120.105 16.241 120.032 16.4724 120.024 16.7105C120.026 16.9142 120.1 17.1107 120.234 17.2639C120.429 17.4759 120.675 17.6354 120.947 17.7279C121.357 17.8769 121.783 17.9782 122.216 18.03C123.298 18.156 124.335 18.5334 125.244 19.1321C126.16 19.7475 126.617 20.7392 126.617 22.1071C126.617 23.1624 126.134 24.0719 125.167 24.8356C124.214 25.6084 123.021 26.0246 121.793 26.0126Z" fill="#29295F"/>
<path d="M136.865 26.0123C135.816 26.0453 134.771 25.8652 133.794 25.4831C133.422 25.3206 133.064 25.1265 132.725 24.903C132.344 24.6471 131.984 24.3619 131.647 24.0499L133.46 22.2446C133.831 22.6289 134.276 22.9346 134.767 23.1436C135.3 23.3527 135.864 23.4688 136.435 23.4868H136.691C137.103 23.5007 137.514 23.4333 137.9 23.2886C138.179 23.1879 138.417 22.9975 138.576 22.7473C138.709 22.5284 138.782 22.2783 138.787 22.0223C138.784 21.7659 138.712 21.515 138.576 21.2972C138.294 20.8139 137.576 20.5118 136.421 20.3982C135.395 20.2921 134.405 19.9621 133.52 19.4315C132.634 18.9047 132.191 17.9839 132.191 16.6692C132.184 16.1106 132.317 15.559 132.578 15.0653C132.839 14.5716 133.221 14.1516 133.687 13.844C134.578 13.1696 135.661 12.7993 136.778 12.7878C137.967 12.7878 138.917 12.9328 139.62 13.2277C139.941 13.3654 140.246 13.5363 140.531 13.7376C140.888 13.9939 141.228 14.2732 141.549 14.5738L139.744 16.3695C139.421 16.027 139.033 15.7518 138.603 15.5599C138.188 15.3922 137.743 15.31 137.295 15.3182C136.264 15.3182 135.604 15.5599 135.316 16.0432C135.187 16.2432 135.114 16.4746 135.106 16.7127C135.107 16.9164 135.182 17.1129 135.316 17.2661C135.514 17.4807 135.763 17.6405 136.041 17.7301C136.45 17.8794 136.875 17.9807 137.308 18.0322C138.389 18.1574 139.426 18.5349 140.336 19.1342C141.251 19.7497 141.709 20.7414 141.711 22.1093C141.711 23.1646 141.223 24.0741 140.249 24.8378C139.292 25.6113 138.095 26.0267 136.865 26.0123Z" fill="#29295F"/>
<path d="M156.49 26.0124V12.7976H161.565C165.673 12.7976 167.727 15.0009 167.725 19.4074C167.725 21.6018 167.212 23.2509 166.186 24.3545C165.159 25.4582 163.623 26.0108 161.577 26.0124H156.49ZM159.192 15.5189V23.3105H161.577C163.883 23.3105 165.035 22.0103 165.035 19.4099C165.035 16.8094 163.883 15.5124 161.577 15.5189H159.192Z" fill="#29295F"/>
<path d="M175.454 18.0613L181.176 18.0782V20.5868L175.454 20.5698V23.4845H182.433V26.0124H172.752V12.8169H182.452V15.3424H175.444L175.454 18.0613Z" fill="#29295F"/>
<path d="M190.17 17.9285V26.0125H187.466V12.8074H188.399L196.56 20.976V12.8074H199.262V26.0125H198.24L190.17 17.9285Z" fill="#29295F"/>
<path d="M211.342 26.0125H208.65V15.3329H204.266V12.8074H215.707V15.3329H211.332L211.342 26.0125Z" fill="#29295F"/>
<path d="M227.211 22.779H221.964L220.652 26.0126H217.752L223.342 12.8872H225.937L231.505 26.0126H228.53L227.211 22.779ZM222.984 20.2704H226.198L224.586 15.71L222.984 20.2704Z" fill="#29295F"/>
<path d="M236.431 12.8074H239.136V23.4846H246.115V26.0125H236.431V12.8074Z" fill="#29295F"/>
<path d="M72.3862 38.3813C72.1054 38.1095 71.8843 37.7822 71.737 37.4202C71.5897 37.0581 71.5194 36.6694 71.5307 36.2787C71.5219 35.8878 71.5935 35.4992 71.7411 35.1371C71.8887 34.775 72.1091 34.4471 72.3887 34.1737C72.667 33.8954 72.9991 33.6767 73.3648 33.5308C73.7304 33.385 74.1219 33.3151 74.5154 33.3255C75.2499 33.3115 75.9682 33.5419 76.5576 33.9804L75.9775 34.6112C75.5495 34.3223 75.0439 34.1698 74.5275 34.1737C74.2418 34.1615 73.9566 34.2076 73.6894 34.3094C73.4222 34.4113 73.1786 34.5666 72.9735 34.7658C72.7807 34.9586 72.6295 35.1889 72.5293 35.4425C72.4291 35.6961 72.3821 35.9676 72.3911 36.2401C72.3746 36.5242 72.4184 36.8086 72.5195 37.0746C72.6206 37.3407 72.7768 37.5823 72.9778 37.7838C73.1789 37.9853 73.4202 38.142 73.686 38.2437C73.9518 38.3454 74.2361 38.3899 74.5202 38.3741C75.0361 38.3817 75.542 38.2316 75.9703 37.9439L76.5503 38.5698C75.9618 39.0104 75.2431 39.2417 74.5082 39.2272C74.1156 39.2372 73.7252 39.1674 73.3604 39.022C72.9957 38.8766 72.6642 38.6586 72.3862 38.3813Z" fill="#29295F"/>
<path d="M82.0851 39.2271C81.4166 39.2139 80.7731 38.9701 80.2637 38.5369C79.7543 38.1038 79.4103 37.5079 79.2898 36.8501C79.1693 36.1924 79.2798 35.5132 79.6026 34.9276C79.9254 34.342 80.4406 33.8859 81.0611 33.6366C81.6816 33.3873 82.3691 33.36 83.0074 33.5595C83.6456 33.7589 84.1953 34.1727 84.5635 34.731C84.9316 35.2892 85.0955 35.9575 85.0275 36.6227C84.9595 37.2879 84.6636 37.9091 84.1901 38.3813C83.9158 38.6588 83.5874 38.877 83.2254 39.0225C82.8633 39.168 82.4752 39.2377 82.0851 39.2271ZM82.0851 34.0915C81.8019 34.0818 81.5198 34.1334 81.2583 34.2427C80.9968 34.3519 80.762 34.5164 80.5698 34.7247C80.197 35.1552 79.9919 35.7056 79.9919 36.2751C79.9919 36.8445 80.197 37.3949 80.5698 37.8254C80.7682 38.0269 81.0046 38.1869 81.2654 38.2961C81.5262 38.4053 81.806 38.4615 82.0888 38.4615C82.3715 38.4615 82.6514 38.4053 82.9121 38.2961C83.1729 38.1869 83.4093 38.0269 83.6077 37.8254C83.9804 37.3949 84.1856 36.8445 84.1856 36.2751C84.1856 35.7056 83.9804 35.1552 83.6077 34.7247C83.4138 34.5153 83.1769 34.3503 82.9133 34.241C82.6496 34.1317 82.3655 34.0807 82.0803 34.0915H82.0851Z" fill="#29295F"/>
<path d="M90.3129 39.2272C89.8295 39.242 89.3479 39.1598 88.8967 38.9855C88.602 38.8674 88.3272 38.7043 88.0823 38.5022L88.6405 37.9584C88.8241 38.1151 89.0357 38.2357 89.2641 38.3137C89.5324 38.404 89.8125 38.4544 90.0954 38.4635H90.2187C90.4581 38.4659 90.6958 38.4232 90.9195 38.3379C91.1 38.2748 91.2534 38.152 91.3546 37.9898C91.439 37.8496 91.4849 37.6895 91.4875 37.5258C91.4864 37.3438 91.4293 37.1665 91.3237 37.0181C91.2182 36.8697 91.0694 36.7576 90.8978 36.6969C90.6487 36.6031 90.3875 36.5453 90.122 36.5253C89.6508 36.4814 89.1952 36.3337 88.788 36.0927C88.6116 35.9904 88.4695 35.8382 88.3795 35.6553C88.2825 35.4364 88.2363 35.1985 88.2442 34.9592C88.2419 34.7251 88.2998 34.4944 88.4124 34.2891C88.5249 34.0839 88.6884 33.911 88.8871 33.7871C89.2871 33.4841 89.7725 33.3149 90.2743 33.3038C90.721 33.2838 91.1674 33.3503 91.589 33.4995C91.8484 33.6067 92.0878 33.7571 92.2971 33.9442L91.7388 34.488C91.4036 34.2005 90.9717 34.0511 90.5305 34.0699C89.9359 34.0699 89.5468 34.2237 89.3632 34.5315C89.279 34.6613 89.2322 34.8118 89.2278 34.9665C89.227 35.1178 89.2821 35.2641 89.3825 35.3773C89.5678 35.5997 89.9424 35.7487 90.5063 35.8244C91.0021 35.8762 91.4792 36.0416 91.9007 36.3078C92.0957 36.4476 92.2511 36.6355 92.3519 36.8532C92.4527 37.0708 92.4954 37.3109 92.4759 37.55C92.4687 37.7774 92.4072 37.9997 92.2967 38.1986C92.1861 38.3974 92.0297 38.567 91.8403 38.6931C91.4068 39.0398 90.868 39.2282 90.3129 39.2272Z" fill="#29295F"/>
<path d="M100.586 35.2373L98.4887 37.5719L96.391 35.2373V39.2274H95.5378V33.3257H95.6587L98.4887 36.5448L101.311 33.3257H101.435V39.2274H100.586V35.2373Z" fill="#29295F"/>
<path d="M105.358 35.851H108.188V36.6098H105.358V38.4611H108.805V39.2272H104.481V33.3279H108.817V34.094H105.358V35.851Z" fill="#29295F"/>
<path d="M114.847 39.2274H113.989V34.0918H111.86V33.3257H116.976V34.0918H114.847V39.2274Z" fill="#29295F"/>
<path d="M120.027 33.3208H120.887V39.2274H120.024L120.027 33.3208Z" fill="#29295F"/>
<path d="M124.792 38.3815C124.511 38.1095 124.29 37.7821 124.143 37.4201C123.997 37.0581 123.927 36.6694 123.939 36.2789C123.929 35.8879 124 35.4992 124.148 35.137C124.296 34.7748 124.516 34.4469 124.796 34.1739C125.074 33.895 125.405 33.6758 125.771 33.5299C126.136 33.384 126.528 33.3145 126.921 33.3256C127.655 33.3117 128.374 33.542 128.963 33.9806L128.381 34.6113C127.952 34.3228 127.447 34.1704 126.93 34.1739C126.645 34.1616 126.36 34.2078 126.092 34.3096C125.825 34.4114 125.582 34.5667 125.376 34.766C125.184 34.9591 125.033 35.1895 124.933 35.443C124.833 35.6965 124.786 35.9678 124.794 36.2402C124.778 36.5243 124.822 36.8085 124.923 37.0743C125.025 37.3402 125.181 37.5817 125.382 37.7831C125.583 37.9845 125.824 38.1412 126.089 38.2431C126.355 38.345 126.639 38.3896 126.923 38.3742C127.439 38.3814 127.945 38.2314 128.373 37.944L128.951 38.57C128.362 39.0105 127.644 39.2419 126.909 39.2273C126.517 39.2358 126.128 39.1653 125.764 39.02C125.4 38.8747 125.07 38.6575 124.792 38.3815Z" fill="#29295F"/>
<path d="M137.183 39.2274V33.3208H139.438C140.372 33.3208 141.068 33.5625 141.526 34.0458C141.983 34.5292 142.212 35.2727 142.212 36.2765C142.212 37.2738 141.983 38.0158 141.526 38.5023C141.068 38.9889 140.372 39.2306 139.438 39.2274H137.183ZM138.048 34.1787V38.3767H139.438C139.701 38.3959 139.964 38.3577 140.211 38.2647C140.458 38.1716 140.681 38.0259 140.866 37.8377C141.187 37.48 141.349 36.958 141.349 36.2765C141.349 35.595 141.19 35.0681 140.866 34.7153C140.681 34.5279 140.457 34.3829 140.211 34.2903C139.964 34.1977 139.7 34.1596 139.438 34.1787H138.048Z" fill="#29295F"/>
<path d="M146.136 35.851H148.966V36.6098H146.136V38.4611H149.587V39.2272H145.258V33.3279H149.608V34.094H146.148L146.136 35.851Z" fill="#29295F"/>
<path d="M153.514 35.0247V39.2274H152.654V33.3257H152.787L157.064 37.5719V33.3257H157.927V39.2274H157.753L153.514 35.0247Z" fill="#29295F"/>
<path d="M163.952 39.2274H163.094V34.0918H160.965V33.3257H166.081V34.0918H163.954L163.952 39.2274Z" fill="#29295F"/>
<path d="M169.127 33.3208H169.99V39.2274H169.127V33.3208Z" fill="#29295F"/>
<path d="M175.266 39.2272C174.782 39.2419 174.301 39.1597 173.85 38.9855C173.555 38.8668 173.281 38.7038 173.035 38.5022L173.593 37.9584C173.777 38.1151 173.989 38.2357 174.217 38.3137C174.486 38.4041 174.767 38.4546 175.051 38.4635H175.172C175.412 38.469 175.651 38.4297 175.877 38.3475C176.057 38.2838 176.209 38.1611 176.31 37.9995C176.395 37.8597 176.441 37.6993 176.443 37.5355C176.442 37.3722 176.396 37.2124 176.31 37.0739C176.203 36.9037 176.042 36.7743 175.853 36.7065C175.604 36.6127 175.343 36.5549 175.077 36.5349C174.606 36.4911 174.151 36.3433 173.743 36.1023C173.567 36.0006 173.426 35.8482 173.337 35.6649C173.238 35.4466 173.191 35.2084 173.2 34.9689C173.197 34.7348 173.255 34.504 173.368 34.2988C173.48 34.0935 173.644 33.9206 173.842 33.7967C174.243 33.4934 174.73 33.3242 175.232 33.3134C175.679 33.2939 176.125 33.3603 176.547 33.5091C176.806 33.617 177.045 33.7672 177.255 33.9538L176.694 34.4976C176.359 34.2097 175.927 34.0602 175.486 34.0795C174.891 34.0795 174.502 34.2334 174.319 34.5411C174.235 34.6711 174.189 34.8217 174.186 34.9761C174.185 35.127 174.239 35.2729 174.338 35.387C174.523 35.6093 174.899 35.7583 175.464 35.8341C175.959 35.8863 176.435 36.0517 176.856 36.3174C177.051 36.4569 177.207 36.6447 177.308 36.8625C177.409 37.0802 177.451 37.3205 177.431 37.5596C177.424 37.7868 177.363 38.0089 177.253 38.2077C177.143 38.4065 176.987 38.5762 176.798 38.7028C176.362 39.0462 175.821 39.2311 175.266 39.2272Z" fill="#29295F"/>
<path d="M183.468 39.2274H182.61V34.0918H180.481V33.3257H185.597V34.0918H183.468V39.2274Z" fill="#29295F"/>
<path d="M190.975 36.9096H189.591V39.2273H188.655V33.3594H191.244C191.964 33.3594 192.511 33.543 192.885 33.9104C193.042 34.074 193.165 34.2683 193.244 34.4811C193.323 34.694 193.358 34.9209 193.346 35.1478V35.1623C193.361 35.5506 193.238 35.9317 192.998 36.2377C192.711 36.5609 192.341 36.7998 191.928 36.9289L193.44 39.2273H192.264L190.975 36.9096ZM192.053 34.4203C191.785 34.2296 191.461 34.1343 191.133 34.1496H189.591V36.2909H191.159C191.384 36.2967 191.608 36.253 191.814 36.1628C191.991 36.085 192.141 35.9574 192.247 35.7955C192.351 35.6264 192.404 35.4308 192.399 35.2324V35.2179C192.407 35.066 192.379 34.9143 192.317 34.7755C192.255 34.6367 192.16 34.5149 192.041 34.4203H192.053Z" fill="#29295F"/>
<path d="M198.677 39.2274H197.819V36.2089L195.69 33.3257H196.657L198.238 35.5322L199.852 33.3257H200.797L198.668 36.2089L198.677 39.2274Z" fill="#29295F"/>
<path d="M209.555 35.798V36.7526H207.08V39.2274H206.125V36.7526H203.651V35.798H206.125V33.3232H207.08V35.798H209.555Z" fill="#00B1B9"/>
</svg>
